<svg xmlns="http://www.w3.org/2000/svg" viewBox="0 0 64 64" role="img" aria-labelledby="title">
  <title>Deepak Kumar favicon</title>
  <defs>
    <linearGradient id="bg" x1="0%" y1="0%" x2="100%" y2="100%">
      <stop offset="0%" stop-color="#64f1d6" />
      <stop offset="100%" stop-color="#f9b75d" />
    </linearGradient>
  </defs>
  <rect width="64" height="64" rx="18" fill="#07111d" />
  <rect x="4.5" y="4.5" width="55" height="55" rx="14" fill="none" stroke="url(#bg)" stroke-width="1.5" opacity="0.65" />
  <path d="M18 18h9.5c8.6 0 14.5 5.9 14.5 14s-5.9 14-14.5 14H18V18Zm8.8 20.2c4.6 0 7.6-2.6 7.6-6.2s-3-6.2-7.6-6.2h-1.6v12.4h1.6Z" fill="#eaf4ff" />
  <path d="M42.5 18h8v11.5l8-11.5h3.5l-7.4 10.8L62 46h-3.6l-5.7-13-2.2 3.1V46h-8V18Z" fill="#eaf4ff" />
</svg>
